<svg width="64" height="64" viewBox="0 0 64 64" fill="none" xmlns="http://www.w3.org/2000/svg">
<rect width="64" height="64" rx="10" fill="white"/>
<g clip-path="url(#clip0_7719_1182)">
<path fill-rule="evenodd" clip-rule="evenodd" d="M44.6015 44.6069V42.1855C44.6015 41.1856 44.1731 40.1994 43.3502 39.5056L36.4544 33.7242C35.6315 33.0304 35.2031 32.0442 35.2031 31.0444V19.3931H19.3917V27.1266C19.3917 28.1604 19.8473 29.1399 20.643 29.8065L37.3045 43.7839C37.9573 44.3349 38.7598 44.6001 39.5487 44.6001H44.6015V44.6069ZM44.6015 10V36.5061C44.6015 37.506 45.0232 38.4922 45.8529 39.186L52.7487 44.9742C53.5716 45.668 54 46.6542 54 47.654V54H45.0164C44.2207 54 43.425 53.7348 42.7722 53.1838L33.5302 45.4299C32.8773 44.8789 32.0748 44.6137 31.286 44.6137H19.3917V32.7992C19.3917 31.7993 18.9632 30.8131 18.1403 30.1193L11.2513 24.3311C10.4284 23.6373 10 22.6511 10 21.6513V10H44.6015Z" fill="#145FF4"/>
</g>
<defs>
<clipPath id="clip0_7719_1182">
<rect width="44" height="44" fill="white" transform="translate(10 10)"/>
</clipPath>
</defs>
</svg>
