<svg width="287" height="66" viewBox="0 0 287 66" fill="none" xmlns="http://www.w3.org/2000/svg">
<g clip-path="url(#clip0_2784_79)">
<path fill-rule="evenodd" clip-rule="evenodd" d="M51.5154 51.5154V47.911C51.5154 46.4226 50.8775 44.9545 49.6524 43.9218L39.3858 35.3156C38.1607 34.2829 37.5228 32.8148 37.5228 31.3264V13.9825H13.9825V25.4945C13.9825 27.0335 14.6608 28.4914 15.8454 29.4837L40.6514 50.2903C41.6234 51.1104 42.8181 51.5053 43.9926 51.5053H51.5154V51.5154ZM51.5154 0V39.4567C51.5154 40.9451 52.1431 42.4132 53.3784 43.4459L63.645 52.0622C64.8701 53.0949 65.508 54.563 65.508 56.0514V65.4979H52.133C50.9484 65.4979 49.7638 65.103 48.7918 64.2829L35.0321 52.7405C34.0601 51.9204 32.8654 51.5256 31.6909 51.5256H13.9825V33.9386C13.9825 32.4503 13.3446 30.9822 12.1195 29.9494L1.86298 21.3331C0.637868 20.3004 0 18.8323 0 17.3439V0H51.5154Z" fill="#145FF4"/>
<path d="M212.359 9.1934C214.898 9.1934 216.956 7.13539 216.956 4.5967C216.956 2.05801 214.898 0 212.359 0C209.821 0 207.763 2.05801 207.763 4.5967C207.763 7.13539 209.821 9.1934 212.359 9.1934Z" fill="white"/>
<path d="M216.227 13.9824H208.502V51.5154H216.227V13.9824Z" fill="white"/>
<path fill-rule="evenodd" clip-rule="evenodd" d="M244.081 6.9963H251.127V0H244.081C236.76 0 230.837 5.93318 230.837 13.2434V13.9825H223.213V20.9686H230.837V51.5053H238.563C238.563 29.8583 238.542 37.6342 238.552 20.9686H249.74V13.9825H238.552V12.5144C238.552 9.45664 241.023 6.98617 244.081 6.98617V6.9963Z" fill="white"/>
<path fill-rule="evenodd" clip-rule="evenodd" d="M253.922 13.9824H261.769L266.396 40.2363C266.973 42.7675 269.241 44.5292 271.782 44.5191H273.767L279.153 13.9824H287L277.918 65.4978H270.071L272.532 51.5154H271.651C265.333 51.5154 259.734 46.9997 258.6 40.5602L253.912 13.9824H253.922Z" fill="white"/>
<path fill-rule="evenodd" clip-rule="evenodd" d="M145.009 19.4802C142.012 15.329 137.709 13.2534 132.109 13.2534C121.357 13.2534 113.763 22.3354 113.733 32.754C113.702 43.1623 121.397 52.2545 132.109 52.2545C137.709 52.2545 142.012 50.1789 145.009 46.0277V51.5255H152.734V13.9824H145.009V19.4802ZM133.233 20.9585C139.734 20.9585 145.009 26.2335 145.009 32.7337C145.009 39.2339 139.734 44.509 133.233 44.509C126.733 44.509 121.458 39.2339 121.458 32.7337C121.458 26.2335 126.733 20.9585 133.233 20.9585Z" fill="white"/>
<path fill-rule="evenodd" clip-rule="evenodd" d="M170.24 19.4802C173.237 15.329 177.54 13.2534 183.139 13.2534C193.892 13.2534 201.485 22.3354 201.516 32.7539C201.546 43.1623 193.851 52.2545 183.139 52.2545C177.54 52.2545 173.237 50.1789 170.24 46.0277V65.4978H162.515V13.9824H170.24V19.4802ZM182.015 20.9585C175.515 20.9585 170.24 26.2335 170.24 32.7337C170.24 39.2339 175.515 44.5089 182.015 44.5089C188.515 44.5089 193.79 39.2339 193.79 32.7337C193.79 26.2335 188.515 20.9585 182.015 20.9585Z" fill="white"/>
<path fill-rule="evenodd" clip-rule="evenodd" d="M103.861 44.5191H109.521V51.5053H103.861C96.5408 51.5053 90.6177 45.5721 90.6177 38.262V0H98.343V13.9825H110.908V20.9686H98.3228V38.9909C98.3228 42.0487 100.803 44.5191 103.861 44.5191Z" fill="white"/>
</g>
<defs>
<clipPath id="clip0_2784_79">
<rect width="287" height="65.4979" fill="white"/>
</clipPath>
</defs>
</svg>
