<?xml version="1.0" encoding="UTF-8"?><svg id="Camada_1" xmlns="http://www.w3.org/2000/svg" viewBox="0 0 283.46 64.69"><defs><style>.cls-1{fill:#145ff4;}.cls-1,.cls-2{fill-rule:evenodd;}</style></defs><path class="cls-1" d="M50.88,50.88v-3.56c0-1.47-.63-2.92-1.84-3.94l-10.14-8.5c-1.21-1.02-1.84-2.47-1.84-3.94V13.81H13.81v11.37c0,1.52,.67,2.96,1.84,3.94l24.5,20.55c.96,.81,2.14,1.2,3.3,1.2h7.43ZM50.88,0V38.97c0,1.47,.62,2.92,1.84,3.94l10.14,8.51c1.21,1.02,1.84,2.47,1.84,3.94v9.33h-13.21c-1.17,0-2.34-.39-3.3-1.2l-13.59-11.4c-.96-.81-2.14-1.2-3.3-1.2H13.81s0-17.37,0-17.37c0-1.47-.63-2.92-1.84-3.94L1.84,21.07C.63,20.05,0,18.6,0,17.13V0H50.88Z"/><circle cx="209.74" cy="4.54" r="4.54"/><rect x="205.93" y="13.81" width="7.63" height="37.07"/><path class="cls-2" d="M241.07,6.91h6.96V0h-6.96c-7.23,0-13.08,5.86-13.08,13.08v.73h-7.53v6.9h7.53v30.16h7.63c0-21.38-.02-13.7-.01-30.16h11.05v-6.9h-11.05v-1.45c0-3.02,2.44-5.46,5.46-5.46Z"/><path class="cls-2" d="M250.79,13.81h7.75l4.57,25.93c.57,2.5,2.81,4.24,5.32,4.23h1.96l5.32-30.16h7.75l-8.97,50.88h-7.75l2.43-13.81h-.87c-6.24,0-11.77-4.46-12.89-10.82l-4.63-26.25Z"/><path class="cls-2" d="M143.22,19.24c-2.96-4.1-7.21-6.15-12.74-6.15-10.62,0-18.12,8.97-18.15,19.26-.03,10.28,7.57,19.26,18.15,19.26,5.53,0,9.78-2.05,12.74-6.15v5.43h7.63V13.81h-7.63v5.43h0Zm-11.63,1.46c6.42,0,11.63,5.21,11.63,11.63s-5.21,11.63-11.63,11.63-11.63-5.21-11.63-11.63,5.21-11.63,11.63-11.63Z"/><path class="cls-2" d="M168.14,19.24c2.96-4.1,7.21-6.15,12.74-6.15,10.62,0,18.12,8.97,18.15,19.26,.03,10.28-7.57,19.26-18.15,19.26-5.53,0-9.78-2.05-12.74-6.15v19.23h-7.63V13.81h7.63v5.43h0Zm11.63,1.46c-6.42,0-11.63,5.21-11.63,11.63s5.21,11.63,11.63,11.63,11.63-5.21,11.63-11.63-5.21-11.63-11.63-11.63Z"/><path class="cls-2" d="M102.58,43.97h5.59v6.9h-5.59c-7.23,0-13.08-5.86-13.08-13.08V0h7.63V13.81h12.41v6.9h-12.43v17.8c0,3.02,2.45,5.46,5.47,5.46Z"/></svg>